<svg xmlns="http://www.w3.org/2000/svg">
  <symbol id="icon-vk" viewBox="0 0 16 10">
    <path d="M15.6676 8.36194C15.6488 8.3214 15.6313 8.28777 15.615 8.26083C15.3455 7.77537 14.8304 7.1795 14.07 6.47306L14.054 6.45689L14.0459 6.44895L14.0378 6.44082H14.0296C13.6846 6.11187 13.466 5.89068 13.3745 5.77744C13.2071 5.56173 13.1696 5.34338 13.2611 5.12214C13.3258 4.95498 13.5686 4.60198 13.9891 4.06263C14.2103 3.7768 14.3855 3.54771 14.5148 3.37512C15.4478 2.13477 15.8523 1.34217 15.7282 0.997013L15.68 0.916353C15.6476 0.867794 15.564 0.82337 15.4294 0.782856C15.2944 0.742427 15.1219 0.735741 14.9115 0.762684L12.582 0.778776C12.5443 0.765404 12.4904 0.766651 12.4202 0.782856C12.3501 0.799062 12.315 0.807193 12.315 0.807193L12.2745 0.82745L12.2423 0.851786C12.2153 0.867878 12.1856 0.896182 12.1533 0.936639C12.121 0.976954 12.0941 1.02427 12.0726 1.07818C11.819 1.73068 11.5306 2.33734 11.207 2.89813C11.0074 3.23252 10.8242 3.52233 10.6568 3.7677C10.4897 4.013 10.3495 4.19372 10.2363 4.30957C10.123 4.42553 10.0207 4.51843 9.92888 4.5886C9.83717 4.65881 9.76717 4.68847 9.71869 4.67762C9.6701 4.66677 9.62435 4.656 9.58103 4.64524C9.50558 4.59668 9.4449 4.53064 9.39914 4.44706C9.35319 4.36348 9.32225 4.25829 9.30607 4.13156C9.28998 4.00475 9.28046 3.89568 9.27774 3.80397C9.27522 3.71237 9.27638 3.58281 9.28185 3.41566C9.28746 3.24842 9.28998 3.13526 9.28998 3.07594C9.28998 2.87099 9.29398 2.64856 9.302 2.40859C9.31015 2.16863 9.31675 1.97849 9.32228 1.83842C9.32778 1.69821 9.33033 1.54987 9.33033 1.39348C9.33033 1.23709 9.32081 1.11445 9.302 1.02543C9.28341 0.936525 9.25488 0.850228 9.21728 0.766566C9.17946 0.682988 9.1241 0.618336 9.05146 0.572439C8.97868 0.526599 8.88819 0.490222 8.7805 0.463194C8.49467 0.398513 8.13069 0.363524 7.68841 0.358085C6.68545 0.347319 6.041 0.412084 5.75519 0.552296C5.64195 0.611536 5.53948 0.692479 5.44786 0.794868C5.35077 0.913548 5.33722 0.978314 5.40731 0.988967C5.73092 1.03744 5.96 1.1534 6.09483 1.33673L6.14342 1.43388C6.18121 1.50397 6.21895 1.62806 6.25672 1.80599C6.29443 1.98391 6.31876 2.18072 6.32947 2.39633C6.35639 2.79005 6.35639 3.12708 6.32947 3.40744C6.30247 3.68792 6.27697 3.90627 6.25264 4.06266C6.2283 4.21905 6.19192 4.34578 6.14342 4.44281C6.09483 4.53987 6.06251 4.5992 6.0463 4.62073C6.03012 4.64226 6.01664 4.65583 6.00593 4.66116C5.93584 4.68802 5.86294 4.7017 5.78749 4.7017C5.71193 4.7017 5.62031 4.66391 5.51248 4.58838C5.40468 4.51285 5.2928 4.4091 5.17684 4.27696C5.06088 4.14479 4.9301 3.9601 4.78445 3.72286C4.63891 3.48561 4.48791 3.20521 4.33152 2.88167L4.20213 2.64703C4.12124 2.49608 4.01075 2.27629 3.87054 1.98784C3.73024 1.69929 3.60624 1.42017 3.49843 1.15054C3.45534 1.0373 3.39061 0.951088 3.30434 0.891762L3.26385 0.867425C3.23694 0.845893 3.19373 0.82303 3.13446 0.798665C3.07511 0.774328 3.01318 0.756876 2.94841 0.746139L0.732078 0.762231C0.505597 0.762231 0.351928 0.813539 0.271014 0.916013L0.238631 0.964488C0.222454 0.991488 0.214294 1.03461 0.214294 1.09396C0.214294 1.15329 0.230472 1.2261 0.262854 1.31231C0.586398 2.07273 0.938245 2.80608 1.31839 3.51249C1.69854 4.21891 2.02889 4.78794 2.30923 5.21909C2.58962 5.65055 2.87543 6.05775 3.16665 6.44051C3.45786 6.82341 3.65063 7.06879 3.74495 7.17659C3.83937 7.28459 3.91354 7.36533 3.96746 7.41924L4.16972 7.61334C4.29913 7.74279 4.48918 7.89782 4.73994 8.07843C4.99076 8.25915 5.26843 8.43708 5.57311 8.61247C5.87784 8.78759 6.23235 8.93049 6.63684 9.04101C7.04127 9.15165 7.4349 9.19604 7.8178 9.17462H8.74803C8.93669 9.15833 9.07962 9.09901 9.17677 8.99662L9.20895 8.95608C9.2306 8.92389 9.25086 8.87389 9.26956 8.8066C9.28848 8.7392 9.29789 8.66494 9.29789 8.58417C9.29236 8.35234 9.31001 8.14339 9.35036 7.95737C9.39067 7.7714 9.43663 7.63119 9.48802 7.53676C9.53938 7.44242 9.59735 7.36281 9.66186 7.29827C9.72651 7.23359 9.77258 7.19441 9.79961 7.18092C9.82646 7.16735 9.84791 7.15814 9.86409 7.15262C9.99351 7.1095 10.1458 7.15126 10.3212 7.2781C10.4965 7.40482 10.6609 7.5613 10.8147 7.74726C10.9684 7.9334 11.1531 8.14223 11.3687 8.37407C11.5845 8.60599 11.7732 8.77838 11.9349 8.89179L12.0967 8.98886C12.2047 9.05362 12.3449 9.11295 12.5175 9.16686C12.6897 9.22075 12.8407 9.23423 12.9703 9.20729L15.041 9.17499C15.2458 9.17499 15.4051 9.14108 15.5182 9.07379C15.6314 9.00639 15.6987 8.93214 15.7204 8.85136C15.7421 8.77051 15.7432 8.67877 15.7245 8.57621C15.7054 8.47391 15.6865 8.40237 15.6676 8.36194Z" />
  </symbol>

  <symbol id="icon-github" viewBox="0 0 24 24">
    <path d="M12 .3a12 12 0 0 0-3.8 23.4c.6.1.8-.3.8-.6v-2c-3.3.7-4-1.6-4-1.6-.6-1.4-1.4-1.8-1.4-1.8-1-.7.1-.7.1-.7 1.2 0 1.9 1.2 1.9 1.2 1 1.8 2.8 1.3 3.5 1 0-.8.4-1.3.7-1.6-2.7-.3-5.5-1.3-5.5-6 0-1.2.5-2.3 1.3-3.1-.2-.4-.6-1.6 0-3.2 0 0 1-.3 3.4 1.2a11.5 11.5 0 0 1 6 0c2.3-1.5 3.3-1.2 3.3-1.2.6 1.6.2 2.8 0 3.2.9.8 1.3 1.9 1.3 3.2 0 4.6-2.8 5.6-5.5 5.9.5.4.9 1 .9 2.2v3.3c0 .3.1.7.8.6A12 12 0 0 0 12 .3"></path>
  </symbol>

  <symbol id="icon-linkedin" viewBox="0 0 24 24">
    <path d="M19 3a2 2 0 0 1 2 2v14a2 2 0 0 1-2 2H5a2 2 0 0 1-2-2V5a2 2 0 0 1 2-2h14m-.5 15.5v-5.3a3.26 3.26 0 0 0-3.26-3.26c-.85 0-1.84.52-2.32 1.3v-1.11h-2.79v8.37h2.79v-4.93c0-.77.62-1.4 1.39-1.4a1.4 1.4 0 0 1 1.4 1.4v4.93h2.79M6.88 8.56a1.68 1.68 0 0 0 1.68-1.68c0-.93-.75-1.69-1.68-1.69a1.69 1.69 0 0 0-1.69 1.69c0 .93.76 1.68 1.69 1.68m1.39 9.94v-8.37H5.5v8.37h2.77z"></path>
  </symbol>

</svg>
